<svg width="400" height="350" viewBox="0 0 400 350" fill="none" xmlns="http://www.w3.org/2000/svg">
<rect width="400" height="350" fill="#E7F7FE"/>
<g clip-path="url(#clip0_260_2820)">
<path d="M45.61 281.63H268.05C293.57 261.88 359.17 206.46 324.73 154C274.56 77.58 246.18 73.92 149.39 65.3C143.45 64.77 137.71 64.5 132.15 64.5C90.77 64.5 59.72 79.37 33.17 112.09C-9.24998 164.38 42.87 192.13 22.23 254.51C17.06 270.93 27.13 284.06 45.6 293.91V281.62L45.61 281.63Z" fill="#C6E9FB"/>
<path d="M375.57 11H103.57V179.56H375.57V11Z" fill="#ACD1F4"/>
<path d="M384.74 179.56H94.39V191.59H384.74V179.56Z" fill="#ACD1F4"/>
<path opacity="0.8" d="M362.98 20.89H116.16V169.67H362.98V20.89Z" fill="#E7F7FE"/>
<path fill-rule="evenodd" clip-rule="evenodd" d="M219.3 65.76C214.25 65.76 210.15 69.86 210.15 74.91V108.09C210.15 113.14 214.25 117.24 219.3 117.24H252.48C257.53 117.24 261.63 113.14 261.63 108.09V74.91C261.63 69.86 257.53 65.76 252.48 65.76H219.3Z" fill="#ACD1F4"/>
<path fill-rule="evenodd" clip-rule="evenodd" d="M242.12 110.4C237.71 110.4 229.54 108.39 229.54 99.62V88.84H228.67C226.64 88.84 225.54 87.75 225.54 85.69V84.26C225.54 82.2 226.64 81.11 228.73 81.11H229.83V75.78C229.83 73.72 230.93 72.63 233.02 72.63H236.38C238.47 72.63 239.57 73.72 239.57 75.78V81.11H242.64C244.73 81.11 245.83 82.2 245.83 84.26V85.69C245.83 87.75 244.73 88.84 242.7 88.84H239.57V97.78C239.57 100.3 241.25 101.28 243.05 101.51C245.37 101.8 246.24 102.48 246.24 104.66V107.24C246.24 109.59 244.79 110.39 242.13 110.39L242.12 110.4Z" fill="#E7F7FE"/>
<path d="M280.49 279.45H42.42V290.68H280.49V279.45Z" fill="#F39F8D"/>
<path opacity="0.3" d="M280.49 290.07H42.42V317.44H280.49V290.07Z" fill="#F39F8D"/>
<path d="M220.66 267.15H146.92V279.53H220.66V267.15Z" fill="#EACA6E"/>
<path d="M220.65 270.34H170.84V277.18H220.65V270.34Z" fill="#E7F8FE"/>
<path d="M167.08 270.34H151.88V277.18H167.08V270.34Z" fill="#F1BC41"/>
<path d="M212.19 254.77H138.45V267.15H212.19V254.77Z" fill="#48A1DF"/>
<path d="M212.18 256.37H162.37V265.56H212.18V256.37Z" fill="#E7F8FE"/>
<path d="M158.95 256.37H138.45V265.56H158.95V256.37Z" fill="#2C6BB1"/>
<path d="M264.6 259.25C245.28 267.95 222.57 259.34 213.88 240.02C205.18 220.7 213.79 197.99 233.11 189.3" stroke="#48A1DF" stroke-width="1.13" stroke-miterlimit="10"/>
<path d="M230.65 183.83L266.74 263.99" stroke="#48A1DF" stroke-width="1.13" stroke-miterlimit="10"/>
<path d="M266.39 273.73H233.84C232.978 273.73 232.28 274.428 232.28 275.29V277.89C232.28 278.752 232.978 279.45 233.84 279.45H266.39C267.252 279.45 267.95 278.752 267.95 277.89V275.29C267.95 274.428 267.252 273.73 266.39 273.73Z" fill="#2C5281"/>
<path d="M248.86 255.92C266.34 255.92 280.51 241.75 280.51 224.27C280.51 206.79 266.34 192.62 248.86 192.62C231.38 192.62 217.21 206.79 217.21 224.27C217.21 241.75 231.38 255.92 248.86 255.92Z" fill="#48A1DF"/>
<path opacity="0.3" d="M253.91 202.85C256.42 202.79 259.08 203.14 261.1 204.64C263.12 206.14 264.24 209.06 263.06 211.28C261.79 213.67 258.53 214.38 257.1 216.69C255.19 219.78 257.28 224.5 254.72 227.07C251.46 230.34 244.89 226.06 241.54 229.25C240.86 229.9 240.44 230.78 240.1 231.66C238.65 235.43 238.39 239.66 239.38 243.58C239.63 244.59 239.97 245.63 239.73 246.64C239.49 247.65 238.4 248.55 237.44 248.14C236.55 245.8 235.63 243.41 233.98 241.54C232.33 239.66 229.77 238.38 227.33 238.93C226.67 239.08 226.03 239.36 225.36 239.45C223.36 239.73 221.5 238.31 220.31 236.69C216.97 232.15 217.07 226.03 217.3 220.4C217.44 217.1 217.63 213.63 219.41 210.84C220.92 208.47 223.39 206.92 225.51 205.08" fill="#2C5281"/>
<path d="M248.39 263.99V273.73" stroke="#48A1DF" stroke-width="1.13" stroke-miterlimit="10"/>
<path d="M237.5 198.87C239.82 200.48 242.58 201.45 245.4 201.65C247.91 201.83 250.42 201.41 252.93 201.36C255.44 201.3 258.1 201.65 260.12 203.15C262.14 204.65 263.26 207.57 262.08 209.79C260.81 212.18 257.55 212.89 256.12 215.2C254.21 218.29 256.3 223.01 253.74 225.58C250.48 228.85 243.91 224.57 240.56 227.76C239.88 228.41 239.46 229.29 239.12 230.17C237.67 233.94 237.41 238.17 238.4 242.09C238.65 243.1 238.99 244.14 238.75 245.15C238.51 246.16 237.42 247.06 236.46 246.65C235.57 244.31 234.65 241.92 233 240.05C231.35 238.17 228.79 236.89 226.35 237.44C225.69 237.59 225.05 237.87 224.38 237.96C222.38 238.24 220.52 236.82 219.33 235.2C215.99 230.66 216.09 224.54 216.32 218.91C216.46 215.61 216.65 212.14 218.43 209.35C219.94 206.98 222.41 205.43 224.53 203.59C226.83 201.59 228.76 199.2 231.07 197.22C232.16 196.28 236.13 192.97 237.64 194.23C239.57 195.84 235.46 197.45 237.5 198.86V198.87Z" fill="#84DC91"/>
<path d="M242.11 199.03C239.54 199.03 237.45 201.11 237.45 203.69C237.45 205.8 240.59 209.53 241.71 210.79C241.92 211.03 242.28 211.03 242.49 210.79C243.61 209.53 246.75 205.8 246.75 203.69C246.75 201.12 244.67 199.03 242.09 199.03H242.11ZM242.11 205.77C240.96 205.77 240.03 204.84 240.03 203.69C240.03 202.54 240.96 201.61 242.11 201.61C243.26 201.61 244.19 202.54 244.19 203.69C244.19 204.84 243.26 205.77 242.11 205.77Z" fill="#EF515B"/>
<path d="M222.2 205C219.63 205 217.54 207.08 217.54 209.66C217.54 211.77 220.68 215.5 221.8 216.76C222.01 217 222.37 217 222.58 216.76C223.7 215.5 226.84 211.77 226.84 209.66C226.84 207.09 224.76 205 222.18 205H222.2ZM222.2 211.74C221.05 211.74 220.12 210.81 220.12 209.66C220.12 208.51 221.05 207.58 222.2 207.58C223.35 207.58 224.28 208.51 224.28 209.66C224.28 210.81 223.35 211.74 222.2 211.74Z" fill="#EF515B"/>
<path d="M234.74 214.39C232.17 214.39 230.08 216.47 230.08 219.05C230.08 221.16 233.22 224.89 234.34 226.15C234.55 226.39 234.91 226.39 235.12 226.15C236.24 224.89 239.38 221.16 239.38 219.05C239.38 216.48 237.3 214.39 234.72 214.39H234.74ZM234.74 221.13C233.59 221.13 232.66 220.2 232.66 219.05C232.66 217.9 233.59 216.97 234.74 216.97C235.89 216.97 236.82 217.9 236.82 219.05C236.82 220.2 235.89 221.13 234.74 221.13Z" fill="#EF515B"/>
<path d="M277.94 228.89C277.34 231.11 276.66 233.45 275 235.04C274.54 235.48 274 235.87 273.74 236.45C273.53 236.92 273.53 237.45 273.38 237.94C273.02 239.16 271.84 240.01 271.51 241.24C271.4 241.66 271.39 242.11 271.22 242.5C271.03 242.93 270.66 243.26 270.29 243.56C269.33 244.34 268.31 245.05 267.24 245.68C266.69 246.01 266.09 246.32 265.45 246.35C264.86 246.37 264.29 246.15 263.71 246.04C261.93 245.68 259.92 246.25 258.38 245.28C258.08 245.09 257.75 244.84 257.42 244.95C256.97 245.09 256.95 245.76 257.2 246.16C257.78 247.07 259.1 247.28 259.68 248.2C260.08 248.84 260.01 249.66 260.28 250.36C260.67 251.37 261.74 252 262.82 252.12C263.9 252.24 264.98 251.95 265.99 251.57C269.76 250.16 273.01 247.59 275.76 244.66C277.33 242.99 278.78 241.15 279.66 239.02C280.59 236.76 280.82 234.28 280.93 231.83C281 230.2 281.03 228.58 281.01 226.95C281 226.01 281.39 222.84 280.77 222.15C279.71 220.95 279.39 223.59 279.22 224.2C278.8 225.76 278.37 227.32 277.95 228.88L277.94 228.89Z" fill="#84DC91"/>
<path d="M77.94 268.34L154.61 270.77C167.97 293.17 164.27 324.72 160.56 343.42C147.92 345.57 133.36 347.15 116.09 348.96C111.32 349.46 106.71 349.71 102.25 349.71C87.57 349.71 74.52 346.96 62.67 341.24C55.14 287.6 77.93 268.34 77.93 268.34H77.94Z" fill="#2B6BB1"/>
<path opacity="0.5" d="M77.93 268.34L154.6 270.77C156.42 273.82 157.92 277.05 159.15 280.4C149.24 288.08 136.99 293.26 124.22 295.21L114.69 296.05C104.22 296.28 93.73 294.28 84.2 289.59C81.21 288.12 77.58 289.76 76.8 293.02C72.53 310.77 72.24 331.43 80.6 347.45C74.31 346.05 68.35 343.99 62.66 341.24C55.14 287.6 77.92 268.35 77.92 268.35L77.93 268.34Z" fill="#2A4365"/>
<path d="M194.43 155.04C194.96 148.9 203.82 145.56 210.01 144.06C216.2 142.56 223.53 141.55 223.63 144.89C223.72 148.24 212.36 150.44 212.36 150.44L194.44 155.04H194.43Z" fill="#E9B6A6"/>
<path d="M194.43 155.04C194.96 148.9 203.82 145.56 210.01 144.06C216.2 142.56 223.53 141.55 223.63 144.89C223.72 148.24 212.36 150.44 212.36 150.44L194.44 155.04H194.43Z" fill="#DD9D8B"/>
<path d="M194.45 155.04C194.45 145.36 216.05 148.36 215.05 148.53C215.05 148.53 253.18 150.32 252.84 153.83C252.5 157.34 208.5 156.17 205.52 161.63L194.46 155.03L194.45 155.04Z" fill="#E9B6A6"/>
<path d="M152.96 179.94C157.4 189.41 162.15 196.84 162.15 196.84C166.4 184.1 194.46 155.05 194.46 155.05L205.52 161.65C205.52 161.65 172.74 226.43 162.15 227.85C155.47 228.74 143.3 215.92 136.57 203.99C139.68 194.35 144.1 184.65 152.96 179.95V179.94Z" fill="#E9B6A6"/>
<path d="M136.56 203.98C139.67 194.34 144.09 184.64 152.95 179.94C154.03 182.25 155.13 184.43 156.18 186.42C149.72 197.74 145.63 210.88 151.84 222.97C146.34 218.31 140.51 211 136.56 203.99V203.98Z" fill="#DD9D8B"/>
<path d="M118.58 136.65H125.18C142.35 137.8 150.2 168.55 157.25 179.94C148.39 184.63 139.67 194.34 136.56 203.98C132.61 196.98 129.89 191.36 129.89 191.36L118.57 136.66L118.58 136.65Z" fill="#2A4365"/>
<path d="M157.76 179.94C145.03 186.8 135.64 205.25 135.64 205.25L133.05 200.69C135.28 185.52 154.58 173.43 154.58 173.43L157.77 179.94H157.76Z" fill="#F5FDFF"/>
<path d="M78.2 61.73C93.16 48.61 72.14 25.04 57.63 27.06C57.63 27.06 65.83 29 67.87 32.14C67.87 32.14 57.44 23.25 46.48 37.31C35.53 51.37 49.27 68.26 58.84 68.62C68.41 68.98 78.21 61.73 78.21 61.73H78.2Z" fill="#233859" stroke="#233859" stroke-width="0.71" stroke-miterlimit="10"/>
<path d="M70.6 30.69C81.19 37.57 88.95 52.33 78.22 61.72C78.22 61.72 68.42 68.97 58.85 68.61C53.9 68.42 47.83 63.8 44.64 57.44C60.82 66.28 69.32 43.76 70.58 30.69H70.6Z" fill="#233859" stroke="#233859" stroke-width="0.71" stroke-miterlimit="10"/>
<path d="M72.29 32.88C73.59 32.05 75.28 32.23 76.44 33.25C85.5 41.25 90.71 54.54 80.61 63.23C80.61 63.23 70.23 70.76 60.17 70.29C60.17 70.29 60.17 70.29 60.16 70.29C59.33 70.25 58.62 69.68 58.35 68.9C55.2 59.99 63.87 38.24 72.29 32.88Z" fill="#EF515B"/>
<path d="M87.15 53.36L86.13 52.2C85.37 52.61 85.56 53.38 85.56 53.38L87.15 53.36Z" fill="black"/>
<path d="M91.75 56.2L90.45 55.37C89.83 55.98 90.22 56.66 90.22 56.66L91.75 56.21V56.2Z" fill="black"/>
<path d="M134.38 34.1C151.44 33.36 157.73 71.46 137.16 82.63L131.43 47.06L134.38 34.1Z" fill="#2A4365"/>
<path d="M143.81 56.62C145.26 59.93 144.54 64.07 143.81 67.37C149.23 59.66 150.26 49.65 145.67 40.79C153.65 50.64 153.1 74.06 137.51 82.83L136.16 71.67C140.67 68.8 143.8 62.47 143.8 56.63L143.81 56.62Z" fill="#2A4365"/>
<path d="M33.72 185.64C38.43 172.57 46.66 145.02 53.94 141.38C53.94 141.38 71.86 141.38 76.1 165.89C78.77 181.33 68.9 192.76 68.9 192.76L58.88 207.67C53.95 197.55 44.24 190.18 33.71 185.64H33.72Z" fill="#2A4365"/>
<path d="M73.9 157.59C74.83 159.99 75.61 162.73 76.15 165.89C78.82 181.33 68.95 192.76 68.95 192.76L58.93 207.67C56 201.66 51.38 196.62 45.91 192.56C60.61 186.84 72.43 174.03 73.9 157.59Z" fill="#233859"/>
<path d="M80.7 129.73C71.43 136.65 53.97 141.37 53.97 141.37C76.61 149.37 73.89 174.38 65.05 187.1C65.05 187.1 86.03 214.46 83.68 238.97C81.33 263.49 68.93 271.51 68.93 271.51C106.78 301.22 145.92 288.01 157.25 271.51C152.06 253.59 135.18 219.55 140.8 209.45C146.41 199.35 150.18 183.79 146.88 177.19C143.58 170.59 124.71 142.76 125.18 136.63L112.76 134.75L80.69 129.72L80.7 129.73Z" fill="#2A4365"/>
<path d="M141.42 208.32C141.22 208.71 141.02 209.08 140.81 209.46C135.2 219.56 152.08 253.6 157.26 271.52C145.94 288.02 106.8 301.23 68.94 271.52C68.94 271.52 81.32 263.5 83.69 238.98C86.04 214.46 65.06 187.11 65.06 187.11C68.82 181.7 71.46 174.07 71.53 166.47C76.71 175.4 79.27 186.76 83.4 196.55C93.67 222.8 119.29 219.49 141.42 208.33V208.32Z" fill="#233859"/>
<path d="M77.6 89.48C83.43 103.83 79.8 129.72 79.8 129.72C84.52 137.27 99.85 141.04 103.97 141.36C108.09 141.67 111.86 134.76 111.86 134.76C104.63 129.41 103.97 111.81 103.97 111.81L77.6 89.49V89.48Z" fill="#E9B6A6"/>
<path d="M80.57 103.8C80.14 98.66 79.26 93.6 77.59 89.48L103.96 111.8C103.96 111.8 104.47 125.39 109.5 132.31C96.38 128.28 87.04 115.81 80.57 103.79V103.8Z" fill="#E18E76"/>
<path d="M127.13 43.75C140.35 51.32 139.56 64.74 138.39 76.5C137.83 82.04 136.69 94.53 130.6 104.55C123.77 115.8 115.38 119.34 110.83 119.16C108.54 119.3 100.38 116.81 91.75 109.91C86.8 105.95 81.85 100.18 79.57 95.55C75.76 95.92 68.75 90.77 69.39 80.08C69.9 71.63 76.38 73.25 76.38 73.25C76.38 73.25 76.74 53.72 86.52 44.58C96.29 35.45 114.43 36.48 127.13 43.75Z" fill="#E9B6A6"/>
<path d="M65.99 50.19C68.64 39.77 74.8 32.85 80.46 28.39C90.83 20.22 123.94 13.11 134.87 34.22L131.99 47.38C101.49 27.57 124.65 72.78 89.04 75.77C84.74 76.56 84.81 89.48 84.81 89.48C84.81 89.48 77.18 81.57 76.88 74.52C67.85 75.54 69.79 88.48 77.87 94.1C82.79 97.52 82.29 103.92 80.77 106.68C67.49 102.51 55.67 77.74 65.99 50.18V50.19Z" fill="#2A4365"/>
<path d="M66.42 47.6C66.59 46.94 66.22 47.3 66.42 46.66C66.15 50.42 66.55 56.02 67.34 59.98C68.22 65.27 71.75 68.79 77.03 66.15C78.79 65.27 79.67 62.63 80.55 60.86C80.55 64.38 82.21 69.66 89.8 71.73C97.4 73.79 107.86 60.28 113 45.3C115.51 37.97 126.95 35.76 132.03 47.94C102.03 27.28 123.83 73.2 89.08 75.93C84.78 76.72 84.85 89.64 84.85 89.64C84.85 89.64 77.22 81.73 76.92 74.68C67.89 75.7 69.83 88.64 77.91 94.26C82.83 97.68 82.24 103.93 80.71 106.69C67.43 102.52 55.02 77.9 65.33 50.34L66.4 47.59L66.42 47.6Z" fill="#233859" stroke="#233859" stroke-width="0.71" stroke-miterlimit="10"/>
<path d="M78.61 97C77.37 97 76.37 96 76.37 94.76C76.37 93.52 77.38 92.52 78.61 92.52C79.84 92.52 80.85 93.53 80.85 94.76C80.85 95.99 79.85 97 78.61 97Z" fill="#EF515B"/>
<path d="M79.98 127.96C79.98 127.96 88.3 138.59 104.68 141.34C104.68 141.34 101.69 154.41 95.75 154.41C89.81 154.41 74.68 135.26 74.68 132.32C74.68 129.38 79.99 127.96 79.99 127.96H79.98Z" fill="#F5FDFF"/>
<path d="M102.16 143.51C102.16 143.51 100.16 152.72 94.98 152.72C89.8 152.72 76.6 136.01 76.6 133.45" stroke="#2A4365" stroke-width="0.46" stroke-linecap="round" stroke-linejoin="round"/>
<path d="M104.69 141.34C104.69 141.34 111.42 152.99 115.84 150.31C121.04 147.16 115.77 135.33 114.71 132.32C113.65 129.31 107.16 127.96 107.16 127.96C107.16 127.96 108.74 131.89 110.52 133.58C110.89 137.45 104.69 141.35 104.69 141.35V141.34Z" fill="#F5FDFF"/>
<path d="M106.44 141.39C106.44 141.39 111.41 150 114.67 148.02C118.51 145.69 114.62 136.96 113.83 134.73" stroke="#2A4365" stroke-width="0.46" stroke-linecap="round" stroke-linejoin="round"/>
<path d="M129.88 44.14C141.55 41.97 138.63 61.28 138.63 61.28C138.63 61.28 138.2 53.23 131.93 47.87L129.88 44.14Z" fill="#233859" stroke="#233859" stroke-width="0.71" stroke-miterlimit="10"/>
<path d="M130.28 38.44C118.93 30.6 109.73 34.61 100.7 43.44C93.03 50.79 85.14 60.18 73.38 55.99C85.03 61.7 94.15 52.09 101.86 44.67C110.73 35.98 118.51 32.2 130.28 38.43V38.44Z" fill="#233859" stroke="#233859" stroke-width="0.71" stroke-miterlimit="10"/>
<path d="M108.95 159.35V166.1" stroke="#2A4365" stroke-width="0.36" stroke-miterlimit="10"/>
<path opacity="0.2" d="M128.69 145.93C135.77 167.4 150.25 169.59 147.85 187.94L149.14 186.58L150.25 185.51L151.68 184.22C152.07 175.08 130.5 156.62 128.71 145.94L128.69 145.93Z" fill="#05101F"/>
<path d="M21.18 224.7C21.54 220.54 28.59 204.17 34.98 186.99C45.9 190.47 51.68 195.03 57.57 204.62L46.55 224.8C52.92 230.8 76.31 261.82 88.24 268.69L80.09 281.15C80.09 281.15 19.96 238.79 21.18 224.7Z" fill="#E9B6A6"/>
<path d="M56.48 211.08C53.82 201.23 30.66 189.5 30.66 189.5L33.88 181.95C49.78 187.14 59.75 206.72 59.75 206.72L56.47 211.08H56.48Z" fill="#F5FDFF"/>
<path d="M139.84 71.1C137.87 66.54 129.16 66.99 129.16 66.99" stroke="#1B4268" stroke-width="1.48" stroke-linecap="round" stroke-linejoin="round"/>
<path d="M115.02 65.7599C107.04 61.0799 94.64 68.9699 94.64 68.9699" stroke="#1B4268" stroke-width="1.48" stroke-linecap="round" stroke-linejoin="round"/>
<path d="M130.1 80.86C129.88 82.42 130.57 83.8 131.66 83.97C132.75 84.13 133.82 83 134.05 81.44C134.28 79.88 133.58 78.5 132.49 78.33C131.4 78.17 130.33 79.3 130.1 80.86Z" fill="#1B4268" stroke="#2B4365" stroke-width="0.71" stroke-miterlimit="10"/>
<path d="M104.07 78.0399C103.84 79.6099 104.55 81.0199 105.65 81.1799C106.75 81.3399 107.83 80.1999 108.06 78.6199C108.29 77.0499 107.58 75.6399 106.48 75.4799C105.38 75.3199 104.3 76.4599 104.07 78.0399Z" fill="#1B4268" stroke="#2B4365" stroke-width="0.71" stroke-miterlimit="10"/>
<g opacity="0.3">
<path d="M147.82 83.3799C147.51 86.2799 146.13 88.8099 144.14 90.6399L139.62 71.0499C144.88 72.6099 148.44 77.7299 147.83 83.3799H147.82Z" fill="#C6E9FB"/>
<path d="M124.82 80.89C125.14 77.98 126.52 75.44 128.52 73.61L133.05 93.23C127.78 91.68 124.2 86.56 124.82 80.9V80.89Z" fill="#C6E9FB"/>
<path d="M132.27 71.3099L137.43 93.6499C136.83 93.7099 136.22 93.6999 135.6 93.6699L130.62 72.0899C131.15 71.7899 131.7 71.5299 132.27 71.3199V71.3099Z" fill="#C6E9FB"/>
</g>
<path d="M124.74 81.71C124.51 88.05 129.46 93.36 135.8 93.59C142.13 93.82 147.45 88.87 147.68 82.53C147.91 76.2 142.96 70.88 136.62 70.65C130.28 70.42 124.97 75.37 124.74 81.71Z" stroke="#233859" stroke-width="1.1" stroke-linecap="round" stroke-linejoin="round"/>
<g opacity="0.3">
<path d="M116.92 80.4899C116.61 83.3899 115.23 85.9199 113.24 87.7499L108.72 68.1599C113.98 69.7199 117.54 74.8399 116.93 80.4899H116.92Z" fill="#C6E9FB"/>
<path d="M93.92 78C94.24 75.09 95.62 72.55 97.62 70.72L102.15 90.34C96.88 88.79 93.3 83.67 93.92 78.01V78Z" fill="#C6E9FB"/>
<path d="M101.38 68.4199L106.54 90.7599C105.94 90.8199 105.33 90.8099 104.71 90.7799L99.73 69.1999C100.26 68.8999 100.81 68.6399 101.38 68.4299V68.4199Z" fill="#C6E9FB"/>
</g>
<path d="M93.81 78.7199C93.58 85.0499 98.53 90.3699 104.87 90.5999C111.2 90.8299 116.52 85.8799 116.75 79.5399C116.98 73.2099 112.02 67.8899 105.69 67.6599C99.35 67.4299 94.04 72.3799 93.81 78.7199Z" stroke="#233859" stroke-width="1.1" stroke-linecap="round" stroke-linejoin="round"/>
<path d="M124.97 79.82C121.53 77.99 116.74 78.73 116.74 78.73" stroke="#233859" stroke-width="1.1" stroke-linecap="round" stroke-linejoin="round"/>
<path d="M94.26 75.85L76.97 73.74" stroke="#233859" stroke-width="1.1" stroke-linecap="round" stroke-linejoin="round"/>
<path d="M147.27 85.17L138.31 82.61" stroke="#233859" stroke-width="1.1" stroke-linecap="round" stroke-linejoin="round"/>
<path d="M121.19 86.2C120.57 87.7 126.81 90.72 121.1 92.53" stroke="#1B4268" stroke-width="0.83" stroke-linecap="round" stroke-linejoin="round"/>
<g opacity="0.6">
<path d="M116.99 106.29C114.64 107.09 112.48 105.53 112.48 105.53C113.85 108.52 116.99 106.29 116.99 106.29Z" fill="#E9B6A6"/>
</g>
<path d="M119.81 102.3C115.97 103.44 112.41 102.77 109.25 99.59" stroke="#4A2B5F" stroke-width="0.71" stroke-linecap="round" stroke-linejoin="round"/>
<path d="M117.47 101.35C117.25 100.98 116.93 100.89 116.64 100.96C116.15 101.09 115.65 100.88 115.32 100.49C114.6 99.63 113.56 99.82 112.69 101.11C112.63 101.21 112.57 101.31 112.54 101.42C112.54 101.45 112.52 101.48 112.51 101.5C111.83 103.88 114.7 105.72 116.68 104.23C117.63 103.51 118.23 102.53 117.47 101.34V101.35Z" stroke="#4A2B5F" stroke-width="0.71" stroke-linejoin="round"/>
<path opacity="0.6" d="M93.94 276.21L96.08 278.3L95.77 278.62L93.63 276.52L93.94 276.2V276.21Z" fill="white"/>
<path opacity="0.6" d="M92.54 277.63L94.03 279.09L93.72 279.41L92.23 277.95L92.54 277.63Z" fill="white"/>
<path opacity="0.6" d="M91.31 278.91L92.8 280.37L92.49 280.69L91 279.23L91.31 278.91Z" fill="white"/>
<path opacity="0.6" d="M89.9 280.36L92.04 282.46L91.73 282.78L89.59 280.68L89.9 280.36Z" fill="white"/>
<path opacity="0.6" d="M88.53 281.78L90.02 283.24L89.71 283.56L88.22 282.1L88.53 281.78Z" fill="white"/>
<path opacity="0.6" d="M86.97 283.37L88.46 284.83L88.77 284.52L87.28 283.06L86.97 283.38V283.37Z" fill="white"/>
<path opacity="0.6" d="M85.9 284.45L88.04 286.55L87.73 286.87L85.59 284.77L85.9 284.45Z" fill="white"/>
<path opacity="0.6" d="M84.19 286.2L85.69 287.66L85.99 287.34L84.5 285.88L84.19 286.2Z" fill="white"/>
<path opacity="0.6" d="M82.96 287.47L84.46 288.93L84.77 288.61L83.27 287.16L82.96 287.47Z" fill="white"/>
<path opacity="0.6" d="M95.38 274.81L96.87 276.27L96.56 276.59L95.07 275.13L95.38 274.81Z" fill="white"/>
<path opacity="0.6" d="M81.85 288.62L83.99 290.72L83.68 291.04L81.54 288.94L81.85 288.62Z" fill="white"/>
<path d="M88.24 268.7C91.12 270.33 107.27 285.13 107.93 286.46C108.59 287.8 106.34 294.4 106.17 296.91C106 299.42 93.79 307.19 90.61 308.03C87.43 308.86 83.68 304.02 83.68 304.02C83.68 304.02 87.48 300.41 87.98 300.41C88.48 300.41 78.85 289.07 80.08 281.16C80.46 277.72 88.23 268.7 88.23 268.7H88.24Z" fill="#E9B6A6"/>
<path d="M87.97 300.41C88.08 300.41 87.91 300.32 87.21 299.28C95.21 302.57 103.08 293.91 108.03 287.26C108 289.5 106.3 294.73 106.16 296.9C105.99 299.4 93.78 307.18 90.6 308.02C87.42 308.85 83.67 304.01 83.67 304.01C83.67 304.01 87.47 300.4 87.97 300.4V300.41Z" fill="#DD9D8B"/>
<path d="M78.42 84.0699L78.14 87.5999" stroke="#233859" stroke-width="1.1" stroke-linecap="round" stroke-linejoin="round"/>
<path d="M75.31 86.0499L78.14 85.5499" stroke="#233859" stroke-width="1.1" stroke-linecap="round" stroke-linejoin="round"/>
<path opacity="0.4" d="M144.68 175.5C136.67 179.55 127.71 181.68 118.74 181.67C114.53 181.67 110.31 181.19 106.12 181.62C97.6 182.49 89.93 186.99 81.69 189.33" stroke="#F5FDFF" stroke-width="0.46" stroke-miterlimit="10"/>
<path opacity="0.4" d="M147.5 183.13C144.95 185.01 141.87 186.02 138.82 186.88C135.33 187.87 131.79 188.72 128.17 189.08C121.49 189.75 114.66 188.75 108.07 190.06C99.42 191.78 91.89 197.32 83.23 198.94" stroke="#F5FDFF" stroke-width="0.46" stroke-miterlimit="10"/>
<path opacity="0.4" d="M146.05 194.3C140.81 195.83 135.48 197.21 130.03 197.55C125.6 197.83 121.13 197.41 116.74 198.04C108.3 199.24 100.67 204.18 92.18 204.94" stroke="#F5FDFF" stroke-width="0.46" stroke-miterlimit="10"/>
<path d="M104.8 142.46L112.31 171.38" stroke="#F5FDFF" stroke-width="0.46" stroke-linecap="round" stroke-linejoin="round"/>
<path d="M106.02 153.02C106.34 154.39 107.28 155.34 108.13 155.15C108.98 154.96 109.41 153.69 109.1 152.31C108.79 150.93 107.84 149.99 106.99 150.18C106.14 150.37 105.71 151.65 106.02 153.02Z" fill="#F5FDFF"/>
<path d="M109.3 166.49C109.62 167.86 110.56 168.81 111.41 168.62C112.26 168.43 112.69 167.16 112.38 165.78C112.07 164.4 111.12 163.46 110.27 163.65C109.42 163.84 108.99 165.12 109.3 166.49Z" fill="#F5FDFF"/>
<path d="M107.17 151.69C107.43 152.41 107.64 153.15 107.8 153.89" stroke="#2A4365" stroke-width="0.37" stroke-linecap="round" stroke-linejoin="round"/>
<path d="M108.12 152.43C107.66 152.64 107.18 152.82 106.67 152.97" stroke="#2A4365" stroke-width="0.37" stroke-linecap="round" stroke-linejoin="round"/>
<path d="M110.54 165.06C110.8 165.78 111.01 166.52 111.17 167.26" stroke="#2A4365" stroke-width="0.37" stroke-linecap="round" stroke-linejoin="round"/>
<path d="M111.49 165.83C111.03 166.04 110.55 166.22 110.04 166.37" stroke="#2A4365" stroke-width="0.37" stroke-linecap="round" stroke-linejoin="round"/>
</g>
<defs>
<clipPath id="clip0_260_2820">
<rect width="368.74" height="338.71" fill="white" transform="translate(16 11)"/>
</clipPath>
</defs>
</svg>
